<?xml version="1.0" encoding="UTF-8"?>
<svg xmlns="http://www.w3.org/2000/svg" viewBox="0 0 867.41 1803.49">
  <defs>
    <style>
      .cls-1 {
        fill: #1f2953;
      }

      .cls-1, .cls-2, .cls-3, .cls-4, .cls-5, .cls-6, .cls-7, .cls-8, .cls-9, .cls-10, .cls-11 {
        stroke-width: 0px;
      }

      .cls-12, .cls-13 {
        stroke: #042237;
      }

      .cls-12, .cls-13, .cls-14 {
        stroke-miterlimit: 10;
      }

      .cls-12, .cls-13, .cls-14, .cls-15 {
        fill: none;
        stroke-linecap: round;
      }

      .cls-12, .cls-15 {
        stroke-width: 4.51px;
      }

      .cls-16 {
        isolation: isolate;
      }

      .cls-2 {
        fill: #47c1f1;
      }

      .cls-3 {
        fill: #f4a29e;
      }

      .cls-13 {
        stroke-width: 2.88px;
      }

      .cls-4 {
        fill: #042237;
      }

      .cls-5 {
        fill: #00b3bc;
      }

      .cls-6 {
        fill: #f1f9fe;
      }

      .cls-7 {
        fill: #a4c4d6;
      }

      .cls-7, .cls-14, .cls-11 {
        mix-blend-mode: multiply;
      }

      .cls-14 {
        stroke: #ebd0cc;
        stroke-width: 3.01px;
      }

      .cls-8 {
        fill: #dadada;
      }

      .cls-9 {
        fill: #1c2223;
      }

      .cls-10 {
        fill: #8dd3f6;
      }

      .cls-11 {
        fill: #e4c2bd;
      }

      .cls-15 {
        stroke: #cfe1ed;
        stroke-linejoin: round;
      }
    </style>
  </defs>
  <g class="cls-16">
    <g id="Capa_1" data-name="Capa 1">
      <g>
        <path class="cls-4" d="m406.38,86.44c9.02,10.02,25.55,8.02,32.07-3.01,6.01-10.52,1-37.58-15.03-30.56,8.51-7.52,9.52-25.55,2.01-34.57-3.51-3.51-10.03-7.01-15.03-7.52-5.01-.5-12.53,5.51-16.04,4.51-3.5-1-7.52-9.52-12.52-12.02-5.01-2-11.03-4.01-16.53-3.01-6.52,1-10.52,6.51-16.53,6.51-5.52,0-10.52-5.01-16.04-5.51-13.53-1.5-22.55,6.01-31.06,15.03-7.52,8.01-24.55,9.52-27.06,24.55-.5,5.51,2.01,10.02,3.51,15.03,2.5,8.02,0,8.52-2.51,15.53-4,11.52,4.51,19.54,3.51,30.06-.5,13.53-2.01,21.55,11.52,30.56,13.03,9.02,18.54-10.52,20.55-21.04,1-6.51,0-13.03,1-19.54,2.01-8.52,7.52-15.53,13.02-22.05,12.02-14.03,27.06-23.05,45.09-27.06,15.54-3.51,21.55,3.01,27.56,16.53,4.51,9.02,0,18.54,4.51,27.56h4Z"/>
        <path class="cls-9" d="m477.32,1758.02c18.23,9.11,69.04,39.6,82.18,41.44,13.12,1.86,30.18,3.52,38.25,0,4.51-1.95,6.21-19.96-10.29-25.93l-19.53-8.48-43.91-38.95-46.46,3.49s-13.6,21.77-.25,28.42Z"/>
        <path class="cls-9" d="m121.72,1800.88c-19.15,6.91-49.52-1.02-58.5-10.74-22.18-24.06,36.86-123.8,36.86-123.8l45.72,8.91s-10.04,120.58-24.08,125.63Z"/>
        <path class="cls-1" d="m222.71,843.33l299.41-6.09c46.03,194.53,25.35,878.1,23.63,883.63-11.08,19.16-78.68,16.89-89.86,4.17-1.09-7.98-99.12-450.3-117.35-711.03l-23.15-.04s-93.82-47.27-92.68-170.64Z"/>
        <path class="cls-1" d="m470.93,884.75l-295.1-78.74c-91.07,177.94-86.68,850.21-86.36,855.96,6.2,21.27,72.41,35.18,86.3,25.5,2.96-7.5,172.61-681.18,172.61-681.18,0,0,94.23-1.46,122.55-121.54Z"/>
        <path class="cls-10" d="m522.11,837.23c-37.28,34.97-341.8,51.74-364.27,8.7-16.35-31.27-17.89-390.83-17.89-390.83,0,0,36.7-182.62,50.8-193.77,14.11-11.15,107.72-26.07,107.72-26.07h80.55s88.32,16.85,109.63,38.55c21.32,21.7,23.32,184.35,23.32,184.35,0,0,51.12,340.65,10.15,379.06Z"/>
        <path class="cls-12" d="m415.45,1012.46c-43.54,15.3-77.84,5.94-77.84,5.94"/>
        <path class="cls-3" d="m298.27,235.29l45.91,49.82,36.25-49.82-10.72-51.4s-68.68-50.98-65.73-28.22c2.95,22.75-5.72,79.62-5.72,79.62Z"/>
        <path class="cls-11" d="m330.29,201.79c-14.23-17.77-12.64-35.69-14.23-50.29,19.01,6.72,53.65,32.39,53.65,32.39l7.52,36.02c-11.75,1.11-35.31-3.6-46.94-18.12Z"/>
        <path class="cls-3" d="m396.18,199.71c-10.87,7.64-25.92,5.67-25.92,5.67,0,0-60.39-3.39-68.04-53.56-2.84-18.54-8.84-30.5-6.76-59.72,2.68-36.82,66.99-59.83,66.99-59.83l43.24,16.95s7.42,20.77,6.82,39.75c-.9,29.09,11.36,91.3-16.35,110.74Z"/>
        <path class="cls-4" d="m373.62,18.82c38.14,8.61,44.09,36.42,44.09,50.6s-5.21,22.05-5.21,22.05c0,0-.07-15.98-1.78-24.42-2.4,8.91-43.19,7.89-73.83,2.69-24.91,15.38-15.02,54.94-24.48,68.37-6.07,8.63-11.47,11.43-16.39,4.86-4.5-29.32-14.44-63.34-13.11-78.09,4.25-47.07,63.49-52.21,90.71-46.06Z"/>
        <path class="cls-3" d="m312.41,138.11c9.95-1.68-2.69,12.54-10.18,13.72-5.38.83-12.5-3.02-14.56-10.73-2.27-8.49,3.68-13.98,9.04-14.82,9.34-1.47,10.14,12.77,15.7,11.83Z"/>
        <path class="cls-4" d="m355.04,115.35c0,3.04-2.04,5.5-4.61,5.5s-4.57-2.46-4.57-5.5,2.08-5.5,4.57-5.5,4.61,2.46,4.61,5.5Z"/>
        <path class="cls-14" d="m376.63,113.65c-.74,8,2.93,16.65,2.93,16.65,0,0,7.42,3.19,7.42,8.08,0,5.49-7.86,8.57-7.86,8.57"/>
        <path class="cls-13" d="m365.48,163.51c7.88,5.45,27.87,1.8,29.42-6.1"/>
        <path class="cls-4" d="m335.26,105.01c.79-.04,5.62-2.38,11.16-3.05,5.78-.7,11.41.26,12.23-.11,3.51-1.54,3.69-7.03.26-8.85-.6-.31-6.42-.66-12.49.35-6.07,1.01-11.53,5.9-12.1,6.6-1.8,2.2-.36,5.11.94,5.06Z"/>
        <path class="cls-4" d="m392.9,115.35c0,3.04,2.04,5.5,4.61,5.5s4.57-2.46,4.57-5.5-2.08-5.5-4.57-5.5-4.61,2.46-4.61,5.5Z"/>
        <path class="cls-4" d="m412.68,105.01c-.78-.04-5.62-2.38-11.16-3.05-5.78-.7-11.41.26-12.23-.11-3.51-1.54-3.69-7.03-.26-8.85.59-.31,6.42-.66,12.49.35,6.07,1.01,11.53,5.9,12.1,6.6,1.81,2.2.36,5.11-.94,5.06Z"/>
        <path class="cls-6" d="m181.51,690.19c-6.1,16.53-125.07,59.9-154.67,9.1-66.38-113.94,8.58-267.14,30.27-311,45.26-91.55,112.91-140.52,159.21-138.66,70.57,2.84-28.55,188.85-37.09,220.19-6.38,23.41,8.38,203.84,2.28,220.38Z"/>
        <path class="cls-14" d="m335.26,246.88c-14.31-12.41-20.17-41.72-20.17-41.72"/>
        <path class="cls-12" d="m141.26,568.15s-.42-96.45,40.25-190.2"/>
        <g>
          <path class="cls-5" d="m373.77,203.33c-12.11,0-30.42-9.86-35.42-18.45-2.04-3.51,2.58-46.65,2.58-46.65,0,0,20.46-6.1,32.69-6.1s40.65,7,40.65,7c0,0,2.39,27.1-6.85,46.66-7.58,16.04-18.08,17.54-33.65,17.54Z"/>
          <path class="cls-5" d="m344.09,141.51l-31.68-3.41,31.86.41c.83.01,1.5.69,1.49,1.52-.01.83-.69,1.5-1.52,1.49-.05,0-.1,0-.14,0Z"/>
          <path class="cls-5" d="m338,183.88l-35.77-32.06,37.71,29.76c.65.51.76,1.46.25,2.11-.51.65-1.46.76-2.11.25-.02-.02-.05-.04-.07-.06Z"/>
          <path class="cls-7" d="m393.16,170.72s-13.39-1.67-19.02-10.12c-5.63-8.45-6.61-19.94-6.61-19.94"/>
        </g>
        <path class="cls-14" d="m302.24,144.22c.76-5.61-2.13-16.52-7.84-10.46"/>
        <path class="cls-3" d="m755.41,834.86c-88.61-50.7-173.96-125.76-238.13-216.14,9.52-9.07,19.8-17.24,31.83-23.26,27.2-13.64,55.41-22.82,84.07-31.02,41.61,73.11,90.64,135.72,138.47,178.37,19.48,17.37,36.33,20.69,42.54,26.6,9.43,8.94,10.73,17.33,2.2,16.43-9.44-1-18.92-1.07-18.92-1.07l15.97,11.52s34.47,11.62,45.19,15.41c10.7,3.79,6.01,15.1-1.49,13.25-7.5-1.86-42.61-10.27-42.61-10.27,0,0,38.27,14.68,48.02,18.19,9.72,3.52,2.81,15.4-3.18,13.36-5.98-2.06-47.11-16.05-47.11-16.05,0,0,31.67,14.82,40.33,18.8,7.09,3.25,1.87,13.04-5.06,10.13-6.94-2.93-47.07-13.33-47.07-13.33,0,0,31.78,8.81,37.32,12.1,3.58,2.15-.31,5.76-4.13,6.1-12.68,1.09-34.16-3.9-78.26-29.13Z"/>
        <path class="cls-6" d="m737.07,853.02c-14.23-.19-169.21-119-213.44-211.65-42.83-89.73-36.12-155.5-38.93-164.66-9.55-31.05-97-250.33-31.21-224.65,28.66,11.19,84.54,33.04,117.51,125.88,8.31,23.41,25.11,80.88,62.37,160.02,47.99,101.94,142.34,174.89,147.3,196.31,4.96,21.42-29.36,118.94-43.59,118.75Z"/>
        <path class="cls-6" d="m58.24,1278.41c10.35,19.78,202.4,29.87,216.3,20.73,34.57-22.73,37.87-263.23,50.9-591.32,3.92-98.87,2.52-208.27-6.38-254.63-13.7-71.67-46.77-214.64-46.77-214.64,0,0-51.77,4.93-64.09,15.57-12.33,10.58-20.6,230.45-64.35,346.63-1.2,8.54-88.13,672.78-85.61,677.65Z"/>
        <path class="cls-6" d="m560.4,1286.44c-10.34,19.78-186.44,13.94-194.92-.36-1.93-3.25-15.03-390.46-9.12-573.24,3.2-98.9-2.52-208.27,6.38-254.63,13.7-71.67,48.27-215.73,48.27-215.73,0,0,45.28,4.4,64.32,21.74,12.01,10.94-19.04,222.31,54.81,324.52,1.2,8.54,32.78,692.84,30.26,697.71Z"/>
        <path class="cls-2" d="m380.19,227.99s25.35,6.08,25.21,13.1c-.14,7.02-17.71,33.86-21.05,31.99-3.35-1.87-16.81-9.39-16.81-9.39,0,0,7.1,16.53,7.26,18.79.16,2.25-30.61,2.63-30.61,2.63l36.01-57.12Z"/>
        <path class="cls-2" d="m299.25,227.99s-25.35,6.08-25.21,13.1c.14,7.02,17.71,33.86,21.06,31.99,3.34-1.87,16.81-9.39,16.81-9.39,0,0-7.1,16.53-7.26,18.79-.16,2.25,39.53,2.63,39.53,2.63l-44.93-57.12Z"/>
        <path class="cls-3" d="m413.24,623.63c-8.97,3.26-41.92,14.93-41.92,14.93,0,0,39.12-18.92,44.81-21.64,5.7-2.75,2.28-16.07-7.12-11.75-9.41,4.35-46.97,20.76-46.97,20.76,0,0,30.9-18.66,37.55-22.61,6.63-3.94,2.03-15.29-8.25-10.47-10.3,4.83-43,20.76-43,20.76l-19.46,3.01s6.8-6.62,14.22-12.53c6.72-5.35-.11-10.41-13.1-10.16-8.57.16-22.9,9.61-48.96,10.93-62.64,3.15-139.52-6.56-218.66-28.38v125.59c93.43,9.88,187.91,1.91,271.71-20.26,49.12-12.99,67.92-24.53,76.18-34.21,2.49-2.93,2.72-8.23-1.35-7.24-6.25,1.54-35.06,17.58-35.06,17.58,0,0,35.86-20.77,42.86-23.55,6.99-2.8,3.82-13.44-3.51-10.77Z"/>
        <path class="cls-6" d="m298.27,696.47c-4.12,12.76-179.49,46.69-250.63,19.82-71.14-26.87,24.06-162.86,24.06-162.86,0,0,203.48,41.28,215.47,50.94,12,9.66,15.22,79.34,11.1,92.1Z"/>
        <path class="cls-12" d="m77.56,568.37s94.34-14.94,209.6,36"/>
        <path class="cls-12" d="m535.48,695.41s-16.36-238.73-56.38-314.89"/>
        <path class="cls-8" d="m381.51,525.94c0,4.43-3.59,8.02-8.02,8.02s-8.01-3.59-8.01-8.02,3.59-8.02,8.01-8.02,8.02,3.59,8.02,8.02Z"/>
        <path class="cls-8" d="m381.51,714.28c0,4.43-3.59,8.02-8.02,8.02s-8.01-3.59-8.01-8.02,3.59-8.02,8.01-8.02,8.02,3.59,8.02,8.02Z"/>
        <path class="cls-8" d="m384.55,879.61c0,4.43-3.59,8.02-8.02,8.02s-8.01-3.59-8.01-8.02,3.59-8.02,8.01-8.02,8.02,3.59,8.02,8.02Z"/>
        <path class="cls-8" d="m389.53,1044.83c0,4.43-3.59,8.02-8.01,8.02s-8.02-3.59-8.02-8.02,3.59-8.02,8.02-8.02,8.01,3.59,8.01,8.02Z"/>
        <path class="cls-8" d="m395.3,1206.15c0,4.43-3.59,8.02-8.02,8.02s-8.02-3.59-8.02-8.02,3.59-8.02,8.02-8.02,8.02,3.59,8.02,8.02Z"/>
        <path class="cls-15" d="m376.53,479.84s53.08-90.41,52.63-99.32c-.46-8.91-14.69-26.94-14.69-26.94,0,0,21.63,13.03,26.45,0,4.82-13.03,10.83-97.04,10.83-97.04"/>
        <path class="cls-15" d="m302.35,479.84s-53.08-90.41-52.63-99.32c.46-8.91,14.69-26.94,14.69-26.94,0,0-21.62,13.03-26.45,0-4.82-13.03-10.83-97.04-10.83-97.04"/>
      </g>
    </g>
  </g>
</svg>